# xmcd
#
# Track frame offsets:
#	150
#	18982
#	36441
#	55106
#	71535
#	88157
#	104996
#	120571
#	134427
#	151348
#	171242
#	190074
#	207533
#	226198
#	242627
#	259249
#	276088
#	291663
#	305519
#	322440
#
# Disc length: 4562 seconds
#
# Revision: 2
# Processed by: cddbd v1.5.2PL0 Copyright (c) Steve Scherf et al.
# Submitted via: audiograbber 1.83.01
#
DISCID=3a11d014
DTITLE=THC0711 - Top Hits Country (THC)
DYEAR=2007
DGENRE=Karoke
TTITLE0=Rascal Flatts - Take Me There (W - Vocals)
TTITLE1=Underwood, Carrie - So Small (W - Vocals)
TTITLE2=Currington, Billy - Tangled Up (W - Vocals)
TTITLE3=Montgomery Gentry - What Do Ya Think About That (W - Vocals)
TTITLE4=Whiskey Falls - Last Train Running (W - Vocals)
TTITLE5=Allan, Gary - Watching Airplanes (W - Vocals)
TTITLE6=Yearwood, Trisha - Heaven, Heartache And The Power Of Love (W - Vocals)
TTITLE7=Cagle, Chris - What Kinda Gone (W - Vocals)
TTITLE8=Hanson, Jennifer - Joyride (W - Vocals)
TTITLE9=Cyrus, Billy Ray - Ready, Set, Don't Go (W - Vocals)
TTITLE10=Rascal Flatts - Take Me There (THC)
TTITLE11=Carrie Underwood - So Small (THC)
TTITLE12=Billy Currington - Tangled Up (THC)
TTITLE13=Montgomery Gentry - What Do Ya Think About That (THC)
TTITLE14=Whiskey Falls - Last Train Running (THC)
TTITLE15=Gary Allan - Watching Airplanes (THC)
TTITLE16=Trisha Yearwood - Heaven, Heartache And The Power Of Love (THC)
TTITLE17=Chris Cagle - What Kinda Gone (THC)
TTITLE18=Jennifer Hanson - Joyride (THC)
TTITLE19=Billy Ray Cyrus - Ready, Set, Don't Go (THC)
EXTD=
EXTT0=
EXTT1=
EXTT2=
EXTT3=
EXTT4=
EXTT5=
EXTT6=
EXTT7=
EXTT8=
EXTT9=
EXTT10=
EXTT11=
EXTT12=
EXTT13=
EXTT14=
EXTT15=
EXTT16=
EXTT17=
EXTT18=
EXTT19=
PLAYORDER=
